<?xml version="1.0" encoding="utf-8"?>
<!-- Generator: Adobe Illustrator 16.0.0, SVG Export Plug-In . SVG Version: 6.00 Build 0)  -->
<!DOCTYPE svg PUBLIC "-//W3C//DTD SVG 1.1//EN" "http://www.w3.org/Graphics/SVG/1.1/DTD/svg11.dtd">
<svg version="1.1" id="Layer_1" xmlns="http://www.w3.org/2000/svg" xmlns:xlink="http://www.w3.org/1999/xlink" x="0px" y="0px"
	  viewBox="0 0 3000 3000" enable-background="new 0 0 3000 3000" xml:space="preserve">
<g>
	<defs>
		<filter id="Adobe_OpacityMaskFilter" filterUnits="userSpaceOnUse" x="291.501" y="1067.243" width="435.554" height="795.126">
			<feColorMatrix  type="matrix" values="1 0 0 0 0  0 1 0 0 0  0 0 1 0 0  0 0 0 1 0"/>
		</filter>
	</defs>
	<mask maskUnits="userSpaceOnUse" x="291.501" y="1067.243" width="435.554" height="795.126" id="mask0_1_">
		<path fill="#FFFFFF" filter="url(#Adobe_OpacityMaskFilter)" d="M509.434,1810.213l-94.579,21.435
			c-21.216,4.81-42.457-7.948-48.172-28.944l-63.404-232.806l181.889-424.057c5.749-13.402,21.273-19.606,34.673-13.857
			c6.229,2.67,11.188,7.633,13.86,13.857l181.889,424.057l-63.404,232.806c-5.717,20.996-26.958,33.754-48.176,28.944
			L509.434,1810.213z M509.434,1164.364v630.828l14.726-165.216l176.702-57.358l-176.702,27.314L509.434,1164.364z
			 M509.434,1164.364l-14.725,435.568l-176.704-27.314l176.704,57.358l14.725,165.216V1164.364z"/>
	</mask>
	<g mask="url(#mask0_1_)">
		<path fill="#FFBC00" d="M509.434,1810.213l-94.579,21.435c-21.216,4.81-42.457-7.948-48.172-28.944l-63.404-232.806
			l181.889-424.057c5.749-13.402,21.273-19.606,34.673-13.857c6.229,2.67,11.188,7.633,13.86,13.857l181.889,424.057
			l-63.404,232.806c-5.717,20.996-26.958,33.754-48.176,28.944L509.434,1810.213z M509.434,1164.364v630.828l14.726-165.216
			l176.702-57.358l-176.702,27.314L509.434,1164.364z M509.434,1164.364l-14.725,435.568l-176.704-27.314l176.704,57.358
			l14.725,165.216V1164.364z"/>
		<path fill="#FF843C" d="M509.299,1613.882v216.947l141.833,31.54l75.923-295.519L509.299,1613.882z"/>
		<path fill="#85D35C" d="M509.285,1067.243v551.521l-217.784-51.784L509.285,1067.243z"/>
		<path fill="#9466E8" d="M510.376,1814.528l-4.195-197.427l-213.195-50.185l73.012,275.582l35.683,10.827L510.376,1814.528z"/>
	</g>
	<path fill="#00B8D7" d="M317.77,1720.093l-43.199-153.1l57.925-131.971l-208.792-115.541c-7.851-4.345-17.739-1.503-22.084,6.349
		c-2.747,4.964-2.707,11,0.105,15.926L317.77,1720.093z"/>
	<path fill="#C1BDC1" d="M896.845,1468.912l65.437,31.214c6.077,2.898,13.352,0.322,16.25-5.751
		c1.684-3.523,1.569-7.642-0.299-11.074l-56.963-104.637L896.845,1468.912z"/>
	<path fill="#FF4081" d="M685.402,1435.162l58.981,134.203l-43.589,149.503l216.091-339.99H815.338L685.402,1435.162z"/>
	<path fill="#303644" d="M2113.447,1622.917c-15.893,23.491-39.096,35.421-71.756,35.421c-38.184,0-64.152-31.796-64.152-125.464
		c0-52.915,8.186-89.113,21.438-107.691c10.031-14.471,25.814-22.729,50.307-22.729c30.332,0,50.842,9.484,64.164,26.695V1622.917z
		 M2113.447,1340.363c-22.43-11.421-48.094-16.982-76.578-16.982c-42.105,0-77.277,15.542-104.113,46.657
		c-32.258,37.681-47.115,95.239-47.115,165.646c0,67.61,16.201,121.453,50.928,159.008c27.029,29.196,60.266,44.143,98.932,44.143
		c29.289,0,55.42-7.242,77.947-21.836v16.191h87.756v-603.732h-87.756V1340.363z M2346.93,1617.917l-0.029-488.458h-87.654
		l-0.084,480.895c0,70.896,56.408,128.481,125.813,128.481l0.045-82.022C2363.998,1656.813,2346.93,1639.39,2346.93,1617.917z
		 M1755.322,1632.122c-20.219,20.283-41.156,29.402-63.016,29.402c-41.285,0-56.1-15.992-56.1-46.713
		c0-39.46,18.643-58.701,65.063-58.701c22.529,0,40.371,2.599,54.053,7.286V1632.122z M1708.186,1323.381
		c-47.5,0-81.787,11.377-123.525,33.288l31.387,75.517c29.406-20.048,48.908-29.972,85.918-29.972
		c36.553,0,53.357,16.955,53.357,57.996v26.116c-18.063-4.742-39.428-6.93-63.711-6.93c-38.25,0-71.611,10.687-99.32,32.713
		c-31.275,24.491-47.088,57.751-47.088,98.484c0,86.077,58.391,128.344,137.41,128.344c29.951,0,56.221-7.255,78.236-22.221
		c2.486,5.94,6.203,10.773,10.061,15.866h71.932v-269.535C1842.842,1371.859,1796.545,1323.381,1708.186,1323.381z
		 M2558.18,1505.936c-22.566,0-40.439-2.596-54.148-7.284l0.113-44.456c0.064-36.297,24.266-53.931,63.061-53.931
		c41.371,0,56.244,16.039,56.244,46.83C2623.449,1486.666,2604.734,1505.936,2558.18,1505.936z M2576.922,1322.647
		c-82.799,0-160.848,40.968-160.744,144.437l0.098,132.168c0,91.429,46.395,140.021,134.977,140.021
		c47.68,0,82.035-11.392,123.844-33.385l-31.428-75.689c-29.516,20.106-49.035,30.044-86.166,30.044
		c-36.639,0-53.471-16.994-53.471-58.148v-26.193c18.094,4.774,39.514,6.96,63.859,6.96c38.354,0,71.811-10.71,99.602-32.807
		c31.346-24.55,47.168-57.898,47.168-98.712C2714.66,1365.025,2656.133,1322.647,2576.922,1322.647z M1405.709,1637.036
		c-10.02,14.469-25.803,22.713-50.308,22.713c-30.343,0-50.825-9.461-64.162-26.683v-193.752
		c15.893-23.492,39.108-35.435,71.748-35.435c38.216,0,64.168,31.806,64.168,125.462
		C1427.156,1582.257,1418.979,1618.457,1405.709,1637.036z M1369.209,1323.381c-29.322,0-55.457,7.256-77.969,21.853v-16.192
		h-87.743v603.715h87.743v-210.916c22.458,11.446,48.095,16.994,76.603,16.994c42.095,0,77.242-15.531,104.103-46.657
		c32.269-37.664,47.111-95.238,47.111-165.642c0-67.611-16.221-121.458-50.924-159.011
		C1441.073,1338.314,1407.834,1323.381,1369.209,1323.381z M2900.412,1405.291v-76.25l-69.002-0.014l-0.045-86.034h-87.666
		l-0.086,367.36c0,70.896,56.41,128.481,125.801,128.481h30.998v-82.022h-30.934c-21.027,0-38.068-17.423-38.068-38.896v-212.626
		H2900.412z"/>
</g>
</svg>
